<?xml version="1.0" standalone="no"?>
<!DOCTYPE svg PUBLIC "-//W3C//DTD SVG 20010904//EN"
 "http://www.w3.org/TR/2001/REC-SVG-20010904/DTD/svg10.dtd">
<svg version="1.0" xmlns="http://www.w3.org/2000/svg"
 width="512.000000pt" height="512.000000pt" viewBox="0 0 512.000000 512.000000"
 preserveAspectRatio="xMidYMid meet">
<metadata>
Created by potrace 1.14, written by Peter Selinger 2001-2017
</metadata>
<g transform="translate(0.000000,512.000000) scale(0.100000,-0.100000)"
fill="#000000" stroke="none">
<path d="M849 4501 c-175 -44 -292 -175 -339 -379 -10 -42 -41 -176 -69 -297
-28 -121 -53 -229 -55 -240 -2 -11 -16 -67 -30 -125 -14 -58 -34 -145 -45
-195 -12 -49 -39 -166 -61 -258 -22 -92 -42 -178 -44 -190 -2 -12 -23 -101
-46 -197 -23 -96 -43 -185 -46 -198 -2 -12 -14 -62 -25 -110 -12 -48 -23 -98
-25 -111 -3 -13 -12 -40 -20 -60 -33 -75 -42 -122 -39 -203 1 -46 5 -92 8
-103 3 -11 8 -31 11 -45 31 -179 132 -648 147 -690 49 -132 122 -235 241 -336
75 -64 227 -131 344 -152 58 -10 873 -8 919 2 17 4 46 11 65 16 19 5 38 10 42
10 4 1 42 18 85 39 184 90 319 242 382 428 16 49 50 196 75 333 3 14 19 93 35
175 17 83 31 151 31 152 0 1 23 9 51 17 63 19 209 16 259 -6 21 -9 36 -23 37
-34 4 -53 115 -580 133 -635 74 -219 249 -391 477 -468 97 -33 140 -35 578
-35 400 0 424 1 503 21 246 65 446 249 525 483 12 37 78 340 93 430 7 42 13
72 44 215 28 127 32 239 13 313 -8 31 -19 62 -23 67 -5 6 -22 67 -39 135 -25
107 -136 585 -146 630 -6 30 -67 288 -95 405 -16 66 -31 131 -33 145 -3 14
-10 43 -15 65 -6 22 -13 51 -16 65 -6 34 -123 533 -138 590 -54 209 -242 352
-453 345 -88 -3 -152 -26 -330 -118 -151 -77 -161 -85 -183 -127 -52 -100 14
-212 125 -213 41 -1 73 12 212 81 172 85 189 89 261 61 33 -12 69 -67 82 -121
5 -24 11 -50 13 -58 2 -8 27 -114 55 -235 28 -121 62 -265 75 -320 13 -55 46
-199 75 -320 28 -121 54 -231 56 -245 3 -14 21 -92 41 -175 29 -125 73 -316
73 -320 0 -1 -354 -2 -787 -2 -434 0 -806 -3 -829 -6 -144 -21 -298 -141 -344
-267 l-12 -35 -168 0 -168 0 -12 35 c-19 52 -84 135 -140 179 -58 46 -131 75
-215 87 -33 5 -408 9 -832 8 -425 0 -773 2 -773 5 0 3 9 40 19 81 10 41 22 93
26 115 5 22 9 45 11 50 9 36 46 193 50 209 2 11 24 108 50 215 25 108 47 205
50 215 6 34 36 158 56 241 11 44 22 91 24 105 3 14 9 41 14 60 5 19 11 46 14
60 27 138 88 368 103 388 32 42 68 64 113 67 35 2 68 -10 211 -80 149 -74 174
-83 211 -79 79 9 138 74 134 148 -5 83 -26 103 -201 193 -88 45 -185 90 -215
99 -75 23 -164 24 -241 5z m1188 -2418 c74 -38 93 -107 64 -233 -5 -25 -12
-60 -16 -78 -3 -18 -21 -108 -40 -200 -19 -92 -37 -183 -40 -202 -34 -202 -96
-312 -219 -392 -108 -70 -116 -71 -542 -73 -210 -1 -408 2 -440 7 -163 25
-305 148 -354 306 -36 116 -153 730 -146 767 9 49 64 102 117 112 22 4 387 8
809 7 745 -1 769 -2 807 -21z m2696 2 c44 -21 75 -60 82 -106 3 -20 -9 -109
-30 -214 -20 -99 -38 -191 -41 -205 -52 -272 -74 -361 -103 -419 -32 -61 -109
-139 -176 -177 -104 -57 -143 -61 -580 -59 -361 2 -394 3 -446 22 -171 60
-281 198 -314 393 -3 19 -8 42 -10 50 -2 8 -7 29 -9 45 -3 17 -10 55 -16 85
-7 30 -14 69 -16 85 -3 17 -9 46 -14 65 -5 19 -12 51 -15 70 -3 19 -12 67 -20
105 -26 125 -27 141 -9 184 21 53 62 82 127 90 29 3 390 6 802 5 698 -1 753
-2 788 -19z"/>
</g>
</svg>
